<?xml version="1.0" standalone="no"?>
<!DOCTYPE svg PUBLIC "-//W3C//DTD SVG 20010904//EN"
 "http://www.w3.org/TR/2001/REC-SVG-20010904/DTD/svg10.dtd">
<svg version="1.0" xmlns="http://www.w3.org/2000/svg"
 width="144.000000pt" height="144.000000pt" viewBox="0 0 144.000000 144.000000"
 preserveAspectRatio="xMidYMid meet">
<metadata>
Created by potrace 1.11, written by Peter Selinger 2001-2013
</metadata>
<g transform="translate(0.000000,144.000000) scale(0.100000,-0.100000)"
fill="#000000" stroke="none">
<path d="M649 1376 c-2 -2 -24 -6 -49 -9 -162 -19 -356 -156 -448 -316 -70
-121 -88 -194 -86 -356 1 -155 54 -295 151 -404 12 -14 19 -29 16 -34 -3 -6
-1 -7 4 -4 13 8 46 -27 36 -38 -5 -4 -3 -5 3 -2 14 8 57 -27 47 -37 -4 -4 0
-4 10 0 11 4 19 0 23 -10 3 -9 14 -16 23 -16 10 0 26 -8 37 -18 10 -10 24 -19
29 -20 33 -8 91 -27 95 -32 5 -5 27 -9 78 -11 17 -1 32 -5 32 -9 0 -4 24 -5
53 -3 28 3 73 5 99 6 27 1 48 5 48 9 0 3 8 5 18 3 9 -1 23 2 30 8 6 5 12 6 12
2 0 -4 6 -2 14 4 8 6 27 13 44 14 16 1 28 5 26 9 -2 4 6 10 18 14 13 4 26 11
29 16 3 5 18 10 32 12 15 1 30 6 35 11 4 4 1 5 -5 1 -23 -13 -13 9 12 27 18
13 25 14 26 5 0 -7 4 -3 10 10 5 14 13 20 20 16 7 -4 9 -3 6 3 -8 13 37 56 48
46 4 -5 5 -2 1 5 -9 16 12 44 27 35 5 -3 7 -2 4 4 -4 5 2 19 11 29 10 10 19
21 19 24 7 26 17 39 26 33 5 -3 7 -2 4 4 -6 9 20 91 33 103 3 3 6 10 7 16 1 6
5 24 9 40 4 16 7 85 8 154 1 138 -17 209 -77 319 -41 74 -100 143 -179 208
-50 41 -191 105 -259 118 -40 7 -205 16 -210 11z"/>
</g>
</svg>
